<?xml version="1.0" encoding="UTF-8" standalone="no"?>
<!-- Created with Inkscape (http://www.inkscape.org/) -->

<svg
   xmlns:dc="http://purl.org/dc/elements/1.1/"
   xmlns:cc="http://creativecommons.org/ns#"
   xmlns:rdf="http://www.w3.org/1999/02/22-rdf-syntax-ns#"
   xmlns:svg="http://www.w3.org/2000/svg"
   xmlns="http://www.w3.org/2000/svg"
   xmlns:sodipodi="http://sodipodi.sourceforge.net/DTD/sodipodi-0.dtd"
   xmlns:inkscape="http://www.inkscape.org/namespaces/inkscape"
   width="100"
   height="100"
   viewBox="0 0 26.458333 26.458334"
   version="1.1"
   id="svg9704"
   inkscape:version="0.92.1 r15371"
   sodipodi:docname="options-red.svg">
  <defs
     id="defs9698" />
  <sodipodi:namedview
     id="base"
     pagecolor="#ffffff"
     bordercolor="#666666"
     borderopacity="1.0"
     inkscape:pageopacity="0.0"
     inkscape:pageshadow="2"
     inkscape:zoom="2.8284598"
     inkscape:cx="44.809846"
     inkscape:cy="25.013317"
     inkscape:document-units="px"
     inkscape:current-layer="layer1"
     showgrid="false"
     units="px"
     inkscape:window-width="1366"
     inkscape:window-height="706"
     inkscape:window-x="0"
     inkscape:window-y="34"
     inkscape:window-maximized="1" />
  <metadata
     id="metadata9701">
    <rdf:RDF>
      <cc:Work
         rdf:about="">
        <dc:format>image/svg+xml</dc:format>
        <dc:type
           rdf:resource="http://purl.org/dc/dcmitype/StillImage" />
        <dc:title></dc:title>
      </cc:Work>
    </rdf:RDF>
  </metadata>
  <g
     inkscape:label="Layer 1"
     inkscape:groupmode="layer"
     id="layer1"
     transform="translate(0,-270.54165)">
    <path
       style="opacity:1;fill:#d40000;fill-opacity:1;stroke:none;stroke-width:0.82016319;stroke-linecap:butt;stroke-linejoin:round;stroke-miterlimit:4;stroke-dasharray:none;stroke-opacity:1"
       d="m 15.914453,270.65371 -1.106484,3.79153 A 6.5090364,6.4559006 42.162014 0 0 13.2018,274.23488 v -5.6e-4 a 6.4559006,6.5090364 47.837986 0 0 -1.606169,0.21037 l -1.095441,-3.75123 -4.9747624,2.11359 1.9551198,3.56735 a 6.4559003,6.5090361 87.162014 0 0 -1.2842723,0.98668 v 5.5e-4 a 6.4559003,6.5090361 2.837986 0 0 -0.9866705,1.28428 l -3.3547894,-1.83863 -1.70721006,4.28846 3.76613206,1.09931 a 6.4559003,6.5090361 42.162014 0 0 -0.2103645,1.60617 h 5.521e-4 a 6.5090361,6.4559003 47.837986 0 0 0.2103646,1.60616 l -3.76226716,1.09821 1.70279296,4.28238 3.3547894,-1.83862 a 6.5090361,6.4559003 87.162014 0 0 0.9866705,1.28427 v 5.6e-4 a 6.5090361,6.4559003 2.837986 0 0 1.2842723,0.98666 l -1.9341388,3.52872 4.9383204,2.17211 1.110902,-3.80423 a 6.5090364,6.4559006 42.162014 0 0 1.606169,0.21035 v -5.4e-4 a 6.4559006,6.5090364 47.837986 0 0 1.606169,-0.21037 l 1.114766,3.81859 5.105618,-2.24278 -1.934138,-3.52872 a 6.4559003,6.5090361 87.162014 0 0 1.284272,-0.98667 v -5.5e-4 a 6.4559003,6.5090361 2.837986 0 0 0.98667,-1.28427 l 3.296263,1.80659 a 13.36684,13.476857 0 0 0 0.04528,-0.0855 l 1.544881,-4.01128 a 13.36684,13.476857 0 0 0 0.01988,-0.089 l -3.788218,-1.10593 a 6.4559003,6.5090361 42.162014 0 0 0.210365,-1.60616 h 5.52e-4 a 6.5090361,6.4559003 47.837986 0 0 -0.210364,-1.60617 l 3.778831,-1.10318 -1.749173,-4.38949 -3.390678,1.85849 a 6.5090361,6.4559003 87.162014 0 0 -0.98667,-1.28482 v -5.5e-4 a 6.5090361,6.4559003 2.837986 0 0 -1.284278,-0.98667 l 1.923648,-3.50828 z m -2.712653,6.63891 a 6.4559006,6.5090364 0 0 1 6.456147,6.5086 6.4559006,6.5090364 0 0 1 -6.456147,6.50915 6.4559006,6.5090364 0 0 1 -6.4555958,-6.50915 6.4559006,6.5090364 0 0 1 6.4555958,-6.5086 z"
       id="path10249"
       inkscape:connector-curvature="0" />
  </g>
</svg>
