<?xml version="1.0" encoding="UTF-8" standalone="no"?>
<!-- Created with Inkscape (http://www.inkscape.org/) -->

<svg
   xmlns:dc="http://purl.org/dc/elements/1.1/"
   xmlns:cc="http://creativecommons.org/ns#"
   xmlns:rdf="http://www.w3.org/1999/02/22-rdf-syntax-ns#"
   xmlns:svg="http://www.w3.org/2000/svg"
   xmlns="http://www.w3.org/2000/svg"
   xmlns:sodipodi="http://sodipodi.sourceforge.net/DTD/sodipodi-0.dtd"
   xmlns:inkscape="http://www.inkscape.org/namespaces/inkscape"
   width="50"
   height="50"
   viewBox="0 0 13.229166 13.229167"
   version="1.1"
   id="svg9704"
   inkscape:version="0.92.1 r15371"
   sodipodi:docname="options.svg">
  <defs
     id="defs9698" />
  <sodipodi:namedview
     id="base"
     pagecolor="#ffffff"
     bordercolor="#666666"
     borderopacity="1.0"
     inkscape:pageopacity="0.0"
     inkscape:pageshadow="2"
     inkscape:zoom="4.0000462"
     inkscape:cx="40.838153"
     inkscape:cy="51.159788"
     inkscape:document-units="px"
     inkscape:current-layer="layer1"
     showgrid="false"
     units="px"
     inkscape:window-width="1366"
     inkscape:window-height="706"
     inkscape:window-x="0"
     inkscape:window-y="34"
     inkscape:window-maximized="1" />
  <metadata
     id="metadata9701">
    <rdf:RDF>
      <cc:Work
         rdf:about="">
        <dc:format>image/svg+xml</dc:format>
        <dc:type
           rdf:resource="http://purl.org/dc/dcmitype/StillImage" />
        <dc:title></dc:title>
      </cc:Work>
    </rdf:RDF>
  </metadata>
  <g
     inkscape:label="Layer 1"
     inkscape:groupmode="layer"
     id="layer1"
     transform="translate(0,-283.77082)">
    <path
       style="opacity:1;fill:#000000;fill-opacity:1;stroke:none;stroke-width:0.41464692;stroke-linecap:butt;stroke-linejoin:round;stroke-miterlimit:4;stroke-dasharray:none;stroke-opacity:1"
       d="m 8.029593,283.73244 -0.5594014,1.91687 a 3.2907499,3.2638862 42.162014 0 0 -0.8120247,-0.10636 v -2.8e-4 a 3.2638862,3.2907499 47.837986 0 0 -0.8120253,0.10635 l -0.5538182,-1.89649 -2.5150722,1.06856 0.9884429,1.80353 a 3.263886,3.2907498 87.162014 0 0 -0.6492849,0.49883 v 2.9e-4 a 3.263886,3.2907498 2.837986 0 0 -0.4988274,0.64928 l -1.69606872,-0.92954 -0.86310802,2.16809 1.90402974,0.55578 a 3.263886,3.2907498 42.162014 0 0 -0.1063533,0.81202 h 2.859e-4 a 3.2907498,3.263886 47.837986 0 0 0.1063533,0.81203 l -1.9020825,0.55521 0.86087488,2.16503 1.69606872,-0.92954 a 3.2907498,3.263886 87.162014 0 0 0.4988274,0.64928 v 2.8e-4 a 3.2907498,3.263886 2.837986 0 0 0.6492849,0.49883 l -0.9778355,1.784 2.4966488,1.09815 0.5616342,-1.92329 a 3.2907499,3.2638862 42.162014 0 0 0.8120253,0.10635 v -2.9e-4 a 3.2638862,3.2907499 47.837986 0 0 0.8120247,-0.10635 l 0.5635883,1.93055 2.5812291,-1.13388 -0.9778353,-1.784 a 3.263886,3.2907498 87.162014 0 0 0.6492843,-0.49882 v -2.9e-4 a 3.263886,3.2907498 2.837986 0 0 0.498828,-0.64928 l 1.666479,0.91335 a 6.7578252,6.8134458 0 0 0 0.02289,-0.0433 l 0.78104,-2.02797 a 6.7578252,6.8134458 0 0 0 0.01005,-0.0449 l -1.915196,-0.55913 a 3.263886,3.2907498 42.162014 0 0 0.106354,-0.81202 h 2.86e-4 a 3.2907498,3.263886 47.837986 0 0 -0.106354,-0.81202 l 1.91045,-0.55773 -0.884323,-2.21918 -1.714212,0.93959 a 3.2907498,3.263886 87.162014 0 0 -0.498834,-0.64956 v -2.8e-4 a 3.2907498,3.263886 2.837986 0 0 -0.6492853,-0.49883 l 0.9725323,-1.77367 z m -1.3714261,3.3564 a 3.2638862,3.2907499 0 0 1 3.2640109,3.29053 3.2638862,3.2907499 0 0 1 -3.2640109,3.29081 3.2638862,3.2907499 0 0 1 -3.2637321,-3.29081 3.2638862,3.2907499 0 0 1 3.2637321,-3.29053 z"
       id="path10249"
       inkscape:connector-curvature="0" />
  </g>
</svg>
