<?xml version="1.0" encoding="UTF-8" standalone="no"?>
<!-- Created with Inkscape (http://www.inkscape.org/) -->

<svg
   xmlns:dc="http://purl.org/dc/elements/1.1/"
   xmlns:cc="http://creativecommons.org/ns#"
   xmlns:rdf="http://www.w3.org/1999/02/22-rdf-syntax-ns#"
   xmlns:svg="http://www.w3.org/2000/svg"
   xmlns="http://www.w3.org/2000/svg"
   xmlns:sodipodi="http://sodipodi.sourceforge.net/DTD/sodipodi-0.dtd"
   xmlns:inkscape="http://www.inkscape.org/namespaces/inkscape"
   width="400"
   height="400"
   viewBox="0 0 105.83333 105.83334"
   version="1.1"
   id="svg8994"
   inkscape:version="0.92.1 r15371"
   sodipodi:docname="pitcher.svg">
  <defs
     id="defs8988" />
  <sodipodi:namedview
     id="base"
     pagecolor="#ffffff"
     bordercolor="#666666"
     borderopacity="1.0"
     inkscape:pageopacity="0.0"
     inkscape:pageshadow="2"
     inkscape:zoom="0.87858018"
     inkscape:cx="-29.953188"
     inkscape:cy="124.01029"
     inkscape:document-units="px"
     inkscape:current-layer="layer1"
     showgrid="false"
     units="px"
     inkscape:pagecheckerboard="true"
     inkscape:window-width="1366"
     inkscape:window-height="706"
     inkscape:window-x="0"
     inkscape:window-y="34"
     inkscape:window-maximized="1" />
  <metadata
     id="metadata8991">
    <rdf:RDF>
      <cc:Work
         rdf:about="">
        <dc:format>image/svg+xml</dc:format>
        <dc:type
           rdf:resource="http://purl.org/dc/dcmitype/StillImage" />
        <dc:title />
      </cc:Work>
    </rdf:RDF>
  </metadata>
  <g
     inkscape:label="Layer 1"
     inkscape:groupmode="layer"
     id="layer1"
     transform="translate(0,-191.16665)">
    <path
       style="opacity:1;fill:#ffd5d5;fill-opacity:1;stroke:none;stroke-width:1.05126488;stroke-linecap:butt;stroke-linejoin:round;stroke-miterlimit:4;stroke-dasharray:none;stroke-opacity:1"
       d="m 45.274657,204.59703 c -22.615107,4.2e-4 -40.9480459,20.92671 -40.9479471,46.74037 0.012904,17.39873 6.9702231,37.13437 22.0050371,41.39828 10.937904,3.10202 28.355886,3.72163 39.18806,-1.27767 8.704978,-4.01754 20.695253,-22.7278 20.703515,-40.12061 9.9e-5,-25.81398 -18.333277,-46.74039 -40.948665,-46.74037 z"
       id="path9539"
       inkscape:connector-curvature="0"
       sodipodi:nodetypes="ccsscc" />
    <path
       style="opacity:1;fill:#ffd5d5;fill-opacity:1;stroke:none;stroke-width:0.73761922;stroke-linecap:butt;stroke-linejoin:round;stroke-miterlimit:4;stroke-dasharray:none;stroke-opacity:1"
       d="m 10.570921,204.1349 a 36.1837,26.04095 0 0 0 -1.808942,8.0747 36.1837,26.04095 0 0 0 36.183847,26.04091 36.1837,26.04095 0 0 0 36.183848,-26.04091 36.1837,26.04095 0 0 0 -1.694751,-7.7811 c -1.477139,5.41053 -16.312777,9.6614 -34.398759,9.6614 -18.41231,0 -33.455635,-4.40524 -34.465243,-9.955 z"
       id="path9539-7"
       inkscape:connector-curvature="0" />
    <ellipse
       style="opacity:1;fill:#fff0f0;fill-opacity:1;stroke:none;stroke-width:1.00410736;stroke-linecap:butt;stroke-linejoin:round;stroke-miterlimit:4;stroke-dasharray:none;stroke-opacity:1"
       id="path9574"
       cx="45.23497"
       cy="203.5172"
       rx="35.047951"
       ry="10.549923" />
    <path
       style="opacity:1;fill:#ffd5d5;fill-opacity:1;stroke:none;stroke-width:0.86334836;stroke-linecap:butt;stroke-linejoin:round;stroke-miterlimit:4;stroke-dasharray:none;stroke-opacity:1"
       d="M 88.056403,216.32423 A 16.508304,25.932069 0 0 0 71.54814,242.2567 16.508304,25.932069 0 0 0 88.056403,268.18864 16.508304,25.932069 0 0 0 104.56471,242.2567 16.508304,25.932069 0 0 0 88.056403,216.32423 Z m -0.353688,7.96185 a 9.3154003,17.629259 0 0 1 9.314906,17.62948 9.3154003,17.629259 0 0 1 -9.314906,17.62891 9.3154003,17.629259 0 0 1 -9.315477,-17.62891 9.3154003,17.629259 0 0 1 9.315477,-17.62948 z"
       id="path9610"
       inkscape:connector-curvature="0" />
    <path
       style="opacity:1;fill:#ffff00;fill-opacity:1;stroke:none;stroke-width:0.95142907;stroke-linecap:butt;stroke-linejoin:round;stroke-miterlimit:4;stroke-dasharray:none;stroke-opacity:1"
       d="m 75.382692,236.14531 c 0.01132,0.12674 0.02675,0.25937 0.02675,0.3688 2.2e-5,5.45779 -14.025271,9.8824 -31.325798,9.8824 -16.612891,0 -30.202902,-4.08001 -31.257144,-9.23684 -2.525661,8.65877 -2.686425,18.09338 -0.437238,26.33062 2.68087,9.26465 6.790715,19.62537 16.245452,23.57669 5.478565,1.38106 10.580885,1.73336 16.336989,1.92773 5.756104,0.19435 11.670464,0.13156 16.031269,-2.18964 15.222855,-11.50353 20.037797,-32.99596 14.379727,-50.65976 z"
       id="path9539-5"
       inkscape:connector-curvature="0"
       sodipodi:nodetypes="ccsccczccc" />
    <ellipse
       style="opacity:1;fill:#ffd000;fill-opacity:1;stroke:none;stroke-width:0.9187538;stroke-linecap:butt;stroke-linejoin:round;stroke-miterlimit:4;stroke-dasharray:none;stroke-opacity:1"
       id="path9574-4"
       cx="44.083775"
       cy="236.78127"
       rx="31.325346"
       ry="9.882205" />
    <ellipse
       style="opacity:1;fill:#ffaaaa;fill-opacity:1;stroke:none;stroke-width:0.86767131;stroke-linecap:butt;stroke-linejoin:round;stroke-miterlimit:4;stroke-dasharray:none;stroke-opacity:1"
       id="path9574-44"
       cx="45.567238"
       cy="205.46486"
       rx="31.325346"
       ry="8.813859" />
  </g>
</svg>
