<?xml version="1.0" encoding="UTF-8" standalone="no"?>
<!-- Created with Inkscape (http://www.inkscape.org/) -->

<svg
   xmlns:dc="http://purl.org/dc/elements/1.1/"
   xmlns:cc="http://creativecommons.org/ns#"
   xmlns:rdf="http://www.w3.org/1999/02/22-rdf-syntax-ns#"
   xmlns:svg="http://www.w3.org/2000/svg"
   xmlns="http://www.w3.org/2000/svg"
   xmlns:sodipodi="http://sodipodi.sourceforge.net/DTD/sodipodi-0.dtd"
   xmlns:inkscape="http://www.inkscape.org/namespaces/inkscape"
   width="400"
   height="400"
   viewBox="0 0 105.83333 105.83334"
   version="1.1"
   id="svg8994"
   inkscape:version="0.92.1 r15371"
   sodipodi:docname="pitcher.svg">
  <defs
     id="defs8988" />
  <sodipodi:namedview
     id="base"
     pagecolor="#ffffff"
     bordercolor="#666666"
     borderopacity="1.0"
     inkscape:pageopacity="0.0"
     inkscape:pageshadow="2"
     inkscape:zoom="1.2425"
     inkscape:cx="200"
     inkscape:cy="193.83713"
     inkscape:document-units="px"
     inkscape:current-layer="layer1"
     showgrid="false"
     units="px"
     inkscape:pagecheckerboard="true"
     inkscape:window-width="1366"
     inkscape:window-height="706"
     inkscape:window-x="0"
     inkscape:window-y="34"
     inkscape:window-maximized="1" />
  <metadata
     id="metadata8991">
    <rdf:RDF>
      <cc:Work
         rdf:about="">
        <dc:format>image/svg+xml</dc:format>
        <dc:type
           rdf:resource="http://purl.org/dc/dcmitype/StillImage" />
        <dc:title />
      </cc:Work>
    </rdf:RDF>
  </metadata>
  <g
     inkscape:label="Layer 1"
     inkscape:groupmode="layer"
     id="layer1"
     transform="translate(0,-191.16665)">
    <path
       style="opacity:1;fill:#ffd5d5;fill-opacity:1;stroke:none;stroke-width:1.06356144;stroke-linecap:butt;stroke-linejoin:round;stroke-miterlimit:4;stroke-dasharray:none;stroke-opacity:1"
       d="M 45.274657,204.87068 A 40.948632,47.839991 0 0 0 4.3267099,252.71088 40.948632,47.839991 0 0 0 26.331747,295.08329 H 64.242141 A 40.948632,47.839991 0 0 0 86.223322,252.71088 40.948632,47.839991 0 0 0 45.274657,204.87068 Z"
       id="path9539"
       inkscape:connector-curvature="0" />
    <path
       style="opacity:1;fill:#ffd5d5;fill-opacity:1;stroke:none;stroke-width:0.74624705;stroke-linecap:butt;stroke-linejoin:round;stroke-miterlimit:4;stroke-dasharray:none;stroke-opacity:1"
       d="m 10.570921,204.39768 a 36.1837,26.653709 0 0 0 -1.808942,8.2647 36.1837,26.653709 0 0 0 36.183847,26.65367 36.1837,26.653709 0 0 0 36.183848,-26.65367 36.1837,26.653709 0 0 0 -1.694751,-7.96419 c -1.477139,5.53784 -16.312777,9.88874 -34.398759,9.88874 -18.41231,0 -33.455635,-4.5089 -34.465243,-10.18925 z"
       id="path9539-7"
       inkscape:connector-curvature="0" />
    <ellipse
       style="opacity:1;fill:#fff0f0;fill-opacity:1;stroke:none;stroke-width:1.01585233;stroke-linecap:butt;stroke-linejoin:round;stroke-miterlimit:4;stroke-dasharray:none;stroke-opacity:1"
       id="path9574"
       cx="45.23497"
       cy="203.76544"
       rx="35.047951"
       ry="10.798169" />
    <path
       style="opacity:1;fill:#ffd5d5;fill-opacity:1;stroke:none;stroke-width:0.87344688;stroke-linecap:butt;stroke-linejoin:round;stroke-miterlimit:4;stroke-dasharray:none;stroke-opacity:1"
       d="M 88.056403,216.87383 A 16.508304,26.542266 0 0 0 71.54814,243.41651 16.508304,26.542266 0 0 0 88.056403,269.95864 16.508304,26.542266 0 0 0 104.56471,243.41651 16.508304,26.542266 0 0 0 88.056403,216.87383 Z m -0.353688,8.1492 a 9.3154003,18.044086 0 0 1 9.314906,18.04431 9.3154003,18.044086 0 0 1 -9.314906,18.04373 9.3154003,18.044086 0 0 1 -9.315477,-18.04373 9.3154003,18.044086 0 0 1 9.315477,-18.04431 z"
       id="path9610"
       inkscape:connector-curvature="0" />
    <path
       style="opacity:1;fill:#ffff00;fill-opacity:1;stroke:none;stroke-width:0.96255785;stroke-linecap:butt;stroke-linejoin:round;stroke-miterlimit:4;stroke-dasharray:none;stroke-opacity:1"
       d="m 75.382692,237.16131 c 0.01132,0.12973 0.02675,0.26548 0.02675,0.37748 2.2e-5,5.58622 -14.025271,10.11494 -31.325798,10.11494 -16.612891,0 -30.202902,-4.17601 -31.257144,-9.45419 -2.525661,8.86252 -2.686425,18.51913 -0.437238,26.9502 2.68087,9.48265 7.844736,20.53889 17.299473,24.58318 10.354831,-0.48552 21.367031,0.96788 31.314237,-0.71979 15.222855,-11.77422 20.037797,-33.77238 14.379727,-51.85182 z"
       id="path9539-5"
       inkscape:connector-curvature="0" />
    <ellipse
       style="opacity:1;fill:#ffd000;fill-opacity:1;stroke:none;stroke-width:0.92950034;stroke-linecap:butt;stroke-linejoin:round;stroke-miterlimit:4;stroke-dasharray:none;stroke-opacity:1"
       id="path9574-4"
       cx="44.083775"
       cy="237.81224"
       rx="31.325346"
       ry="10.114739" />
    <ellipse
       style="opacity:1;fill:#ffaaaa;fill-opacity:1;stroke:none;stroke-width:0.87782037;stroke-linecap:butt;stroke-linejoin:round;stroke-miterlimit:4;stroke-dasharray:none;stroke-opacity:1"
       id="path9574-44"
       cx="45.567238"
       cy="205.75894"
       rx="31.325346"
       ry="9.0212545" />
  </g>
</svg>
