<?xml version="1.0" encoding="UTF-8" standalone="no"?>
<!-- Created with Inkscape (http://www.inkscape.org/) -->

<svg
   xmlns:dc="http://purl.org/dc/elements/1.1/"
   xmlns:cc="http://creativecommons.org/ns#"
   xmlns:rdf="http://www.w3.org/1999/02/22-rdf-syntax-ns#"
   xmlns:svg="http://www.w3.org/2000/svg"
   xmlns="http://www.w3.org/2000/svg"
   xmlns:sodipodi="http://sodipodi.sourceforge.net/DTD/sodipodi-0.dtd"
   xmlns:inkscape="http://www.inkscape.org/namespaces/inkscape"
   width="400"
   height="400"
   viewBox="0 0 105.83333 105.83334"
   version="1.1"
   id="svg8994"
   inkscape:version="0.92.1 r15371"
   sodipodi:docname="pitcher.svg">
  <defs
     id="defs8988" />
  <sodipodi:namedview
     id="base"
     pagecolor="#ffffff"
     bordercolor="#666666"
     borderopacity="1.0"
     inkscape:pageopacity="0.0"
     inkscape:pageshadow="2"
     inkscape:zoom="0.62125"
     inkscape:cx="-58.652766"
     inkscape:cy="252.27693"
     inkscape:document-units="px"
     inkscape:current-layer="layer1"
     showgrid="false"
     units="px"
     inkscape:pagecheckerboard="true"
     inkscape:window-width="1366"
     inkscape:window-height="706"
     inkscape:window-x="0"
     inkscape:window-y="34"
     inkscape:window-maximized="1" />
  <metadata
     id="metadata8991">
    <rdf:RDF>
      <cc:Work
         rdf:about="">
        <dc:format>image/svg+xml</dc:format>
        <dc:type
           rdf:resource="http://purl.org/dc/dcmitype/StillImage" />
        <dc:title></dc:title>
      </cc:Work>
    </rdf:RDF>
  </metadata>
  <g
     inkscape:label="Layer 1"
     inkscape:groupmode="layer"
     id="layer1"
     transform="translate(0,-191.16665)">
    <path
       style="opacity:1;fill:#ffd5d5;fill-opacity:1;stroke:none;stroke-width:3.00000024;stroke-linecap:butt;stroke-linejoin:round;stroke-miterlimit:4;stroke-dasharray:none;stroke-opacity:1"
       d="M 183.09766 94.164062 A 110.66398 140.84508 0 0 0 72.435547 235.00977 A 110.66398 140.84508 0 0 0 131.9043 359.75781 L 234.35742 359.75781 A 110.66398 140.84508 0 0 0 293.76172 235.00977 A 110.66398 140.84508 0 0 0 183.09766 94.164062 z "
       transform="matrix(0.26458334,0,0,0.26458334,0,191.16665)"
       id="path9539" />
    <path
       style="opacity:1;fill:#ffd5d5;fill-opacity:1;stroke:none;stroke-width:0.55693412;stroke-linecap:butt;stroke-linejoin:round;stroke-miterlimit:4;stroke-dasharray:none;stroke-opacity:1"
       d="m 23.630085,215.71244 a 25.872736,20.762074 0 0 0 -1.293461,6.43785 25.872736,20.762074 0 0 0 25.872838,20.76204 25.872736,20.762074 0 0 0 25.872841,-20.76204 25.872736,20.762074 0 0 0 -1.211811,-6.20376 c -1.056211,4.31374 -11.664262,7.70289 -24.596434,7.70289 -13.165508,0 -23.922064,-3.51224 -24.643973,-7.93698 z"
       id="path9539-7"
       inkscape:connector-curvature="0" />
    <ellipse
       style="opacity:1;fill:#fff0f0;fill-opacity:1;stroke:none;stroke-width:0.75814426;stroke-linecap:butt;stroke-linejoin:round;stroke-miterlimit:4;stroke-dasharray:none;stroke-opacity:1"
       id="path9574"
       cx="48.41621"
       cy="215.21997"
       rx="25.060631"
       ry="8.4113016" />
    <path
       style="opacity:1;fill:#ffd5d5;fill-opacity:1;stroke:none;stroke-width:3.00000024;stroke-linecap:butt;stroke-linejoin:round;stroke-miterlimit:4;stroke-dasharray:none;stroke-opacity:1"
       d="M 307.44531 115.89453 A 56.338027 91.750501 0 0 0 251.10742 207.64648 A 56.338027 91.750501 0 0 0 307.44531 299.39648 A 56.338027 91.750501 0 0 0 363.7832 207.64648 A 56.338027 91.750501 0 0 0 307.44531 115.89453 z M 306.23828 144.06445 A 31.790746 62.37425 0 0 1 338.02734 206.43945 A 31.790746 62.37425 0 0 1 306.23828 268.8125 A 31.790746 62.37425 0 0 1 274.44727 206.43945 A 31.790746 62.37425 0 0 1 306.23828 144.06445 z "
       transform="matrix(0.26458334,0,0,0.26458334,0,191.16665)"
       id="path9610" />
    <path
       style="opacity:1;fill:#ffff00;fill-opacity:1;stroke:none;stroke-width:2.71509838;stroke-linecap:butt;stroke-linejoin:round;stroke-miterlimit:4;stroke-dasharray:none;stroke-opacity:1"
       d="M 264.46484 189.23047 C 264.49539 189.61243 264.53711 190.01209 264.53711 190.3418 C 264.53717 206.78811 226.63371 220.12109 179.87891 220.12109 C 134.98245 220.12109 98.255348 207.82654 95.40625 192.28711 C 88.580633 218.37913 88.14617 246.80903 94.224609 271.63086 C 101.46968 299.5486 115.42507 332.0991 140.97656 344.00586 C 168.96057 342.57644 198.72112 346.8554 225.60352 341.88672 C 266.7434 307.2224 279.75581 242.45791 264.46484 189.23047 z "
       transform="matrix(0.26458334,0,0,0.26458334,0,191.16665)"
       id="path9539-5" />
    <ellipse
       style="opacity:1;fill:#ffd000;fill-opacity:1;stroke:none;stroke-width:0.69369859;stroke-linecap:butt;stroke-linejoin:round;stroke-miterlimit:4;stroke-dasharray:none;stroke-opacity:1"
       id="path9574-4"
       cx="47.59306"
       cy="241.74094"
       rx="22.398827"
       ry="7.8789406" />
    <ellipse
       style="opacity:1;fill:#ffaaaa;fill-opacity:1;stroke:none;stroke-width:0.65512913;stroke-linecap:butt;stroke-linejoin:round;stroke-miterlimit:4;stroke-dasharray:none;stroke-opacity:1"
       id="path9574-44"
       cx="48.653797"
       cy="216.77281"
       rx="22.398827"
       ry="7.0271635" />
  </g>
</svg>
