<?xml version="1.0" encoding="UTF-8" standalone="no"?>
<!-- Created with Inkscape (http://www.inkscape.org/) -->

<svg
   xmlns:dc="http://purl.org/dc/elements/1.1/"
   xmlns:cc="http://creativecommons.org/ns#"
   xmlns:rdf="http://www.w3.org/1999/02/22-rdf-syntax-ns#"
   xmlns:svg="http://www.w3.org/2000/svg"
   xmlns="http://www.w3.org/2000/svg"
   xmlns:sodipodi="http://sodipodi.sourceforge.net/DTD/sodipodi-0.dtd"
   xmlns:inkscape="http://www.inkscape.org/namespaces/inkscape"
   width="100"
   height="100"
   viewBox="0 0 100 100"
   version="1.1"
   id="svg10290"
   inkscape:version="0.92.1 r15371"
   sodipodi:docname="plus.svg">
  <defs
     id="defs10284" />
  <sodipodi:namedview
     id="base"
     pagecolor="#ffffff"
     bordercolor="#666666"
     borderopacity="1.0"
     inkscape:pageopacity="0.0"
     inkscape:pageshadow="2"
     inkscape:zoom="3.5143207"
     inkscape:cx="-17.198493"
     inkscape:cy="39.352414"
     inkscape:document-units="px"
     inkscape:current-layer="layer1"
     showgrid="false"
     units="px"
     inkscape:window-width="1366"
     inkscape:window-height="706"
     inkscape:window-x="0"
     inkscape:window-y="34"
     inkscape:window-maximized="1" />
  <metadata
     id="metadata10287">
    <rdf:RDF>
      <cc:Work
         rdf:about="">
        <dc:format>image/svg+xml</dc:format>
        <dc:type
           rdf:resource="http://purl.org/dc/dcmitype/StillImage" />
        <dc:title />
      </cc:Work>
    </rdf:RDF>
  </metadata>
  <g
     inkscape:label="Layer 1"
     inkscape:groupmode="layer"
     id="layer1"
     transform="translate(0,-270.54165)">
    <circle
       style="opacity:1;fill:#000000;fill-opacity:1;stroke:none;stroke-width:9.18518448;stroke-linecap:butt;stroke-linejoin:round;stroke-miterlimit:4;stroke-dasharray:none;stroke-opacity:1"
       id="path10835"
       cx="50.100601"
       cy="320.64224"
       r="49.899395" />
    <path
       style="opacity:1;fill:#ffffff;fill-opacity:1;stroke:none;stroke-width:7.67867041;stroke-linecap:butt;stroke-linejoin:round;stroke-miterlimit:4;stroke-dasharray:none;stroke-opacity:1"
       d="m 13.46768,311.93049 c -1.982742,1.98274 -3.205458,4.72443 -3.205458,7.76299 l 0,1.89758 c 0,6.07712 4.892704,10.96982 10.969822,10.96982 h 16.951228 l -0.0014,16.94985 c -10e-7,6.07712 4.892704,10.96982 10.969822,10.96982 l 1.897587,0 c 6.077118,0 10.969823,-4.8927 10.969822,-10.96982 l 0.0014,-16.94985 16.948467,0 c 6.077118,0 10.969822,-4.8927 10.969822,-10.96982 v -1.89759 c 0,-6.07711 -4.892704,-10.96982 -10.969822,-10.96982 l -16.948467,0 -0.0014,-16.94984 c 10e-7,-6.07712 -4.892704,-10.96983 -10.969822,-10.96983 l -1.897587,0 c -3.03856,0 -5.780241,1.22272 -7.762983,3.20546 -1.982743,1.98274 -3.206841,4.72581 -3.206839,7.76437 l 0.0014,16.94984 H 21.232044 c -3.038559,0 -5.781621,1.2241 -7.764364,3.20684 z"
       id="rect10837"
       inkscape:connector-curvature="0" />
  </g>
</svg>
