<?xml version="1.0" encoding="UTF-8" standalone="no"?>
<!-- Created with Inkscape (http://www.inkscape.org/) -->

<svg
   xmlns:dc="http://purl.org/dc/elements/1.1/"
   xmlns:cc="http://creativecommons.org/ns#"
   xmlns:rdf="http://www.w3.org/1999/02/22-rdf-syntax-ns#"
   xmlns:svg="http://www.w3.org/2000/svg"
   xmlns="http://www.w3.org/2000/svg"
   xmlns:xlink="http://www.w3.org/1999/xlink"
   xmlns:sodipodi="http://sodipodi.sourceforge.net/DTD/sodipodi-0.dtd"
   xmlns:inkscape="http://www.inkscape.org/namespaces/inkscape"
   width="100"
   height="100"
   viewBox="0 0 100 100"
   version="1.1"
   id="svg8"
   inkscape:version="0.92.1 r15371"
   sodipodi:docname="sunny.svg">
  <defs
     id="defs2">
    <linearGradient
       inkscape:collect="always"
       id="linearGradient4565">
      <stop
         style="stop-color:#ffff00;stop-opacity:1;"
         offset="0"
         id="stop4561" />
      <stop
         style="stop-color:#ff7400;stop-opacity:0.98918921"
         offset="1"
         id="stop4563" />
    </linearGradient>
    <radialGradient
       inkscape:collect="always"
       xlink:href="#linearGradient4565"
       id="radialGradient4571"
       cx="49.717728"
       cy="321.11298"
       fx="49.717728"
       fy="321.11298"
       r="48.946243"
       gradientTransform="translate(0,-7.8726281e-6)"
       gradientUnits="userSpaceOnUse" />
  </defs>
  <sodipodi:namedview
     id="base"
     pagecolor="#ffffff"
     bordercolor="#666666"
     borderopacity="1.0"
     inkscape:pageopacity="0.0"
     inkscape:pageshadow="2"
     inkscape:zoom="3.5491077"
     inkscape:cx="119.69604"
     inkscape:cy="49.378853"
     inkscape:document-units="px"
     inkscape:current-layer="layer1"
     showgrid="false"
     units="px"
     inkscape:window-width="1366"
     inkscape:window-height="706"
     inkscape:window-x="0"
     inkscape:window-y="34"
     inkscape:window-maximized="1" />
  <metadata
     id="metadata5">
    <rdf:RDF>
      <cc:Work
         rdf:about="">
        <dc:format>image/svg+xml</dc:format>
        <dc:type
           rdf:resource="http://purl.org/dc/dcmitype/StillImage" />
        <dc:title></dc:title>
      </cc:Work>
    </rdf:RDF>
  </metadata>
  <g
     inkscape:label="Layer 1"
     inkscape:groupmode="layer"
     id="layer1"
     transform="translate(0,-270.54165)">
    <path
       style="opacity:1;fill:url(#radialGradient4571);fill-opacity:1;stroke:none;stroke-width:6.92032576;stroke-linecap:butt;stroke-linejoin:round;stroke-miterlimit:4;stroke-dasharray:none;stroke-opacity:1"
       d="m 49.951366,272.16674 c -4.014019,7.11378 -7.411451,14.52306 -14.369716,17.33943 -6.715202,2.71799 -14.610974,-0.0822 -21.602848,-2.37693 2.651213,9.26358 5.112773,16.52591 1.706911,23.66311 -2.609086,5.46752 -9.5290807,7.7655 -14.9142286,10.38629 7.1022177,4.01024 14.6038356,7.36008 17.3278466,14.34654 2.441893,6.2629 -0.525997,13.60217 -2.728354,19.98089 6.921506,-1.545 13.818515,-5.26694 20.14116,-2.82103 7.023139,2.71689 10.932315,10.43971 14.439229,17.37419 4.032989,-7.07517 6.824556,-14.03088 13.439026,-16.80458 6.790634,-2.84756 14.821953,-0.0964 21.97551,2.25142 -2.822062,-9.69937 -5.083214,-17.11274 -1.463618,-24.42002 2.630408,-5.31029 9.539783,-7.26659 14.761688,-9.90741 -7.03333,-3.95314 -13.084175,-6.87384 -16.333437,-12.27084 a 34.611573,34.611573 0 0 0 -1.631605,-3.7247 c -1.578394,-5.78827 1.302818,-12.34238 3.274797,-18.05386 -5.608158,0.9506 -12.183907,4.4727 -17.96118,3.25742 a 34.611573,34.611573 0 0 0 -4.246037,-1.85752 c -5.620176,-3.79692 -9.355396,-11.71666 -11.815144,-16.3624 z"
       id="path4485"
       inkscape:connector-curvature="0" />
  </g>
</svg>
